<svg width="305" height="264" viewBox="0 0 305 264" fill="none" xmlns="http://www.w3.org/2000/svg">
<path d="M45 81.3415V110L46.099 108.854L47.7474 107.707L49.3958 106.561L256 105.415V84.7805V81.3415V77.9024L255.451 72.1707L253.802 67.5854L251.604 64.1463L247.758 63H54.3411L51.0443 66.439L48.2969 69.878L46.099 75.6098L45 81.3415Z" fill="#D9D9D9"/>
<path d="M267.5 64.5V91H247V76L246.5 75L245.5 73.5L244 72.5L242.5 72H241.5H239H65.5H62.5L60 73L58 74.5L55.5 77.5L54.5 80.5V93L54 94L50 96L45 98.5L40.5 102.5L36 108L34 112.5L0 237.5V24L0.5 21.5L1.5 19L2.5 16.5L3.5 14.5L5 12.5L7 10L9.5 7.5L12 5.5L14.5 3.5L17 2L19.5 1L22 0.5H55L60.5 1L64.5 2L67.5 3.5L70.5 5.5L73.5 8L76 10.5L78 12.5L80 15.5L81.5 18L83 21.5L84 25.5V41H243.5L249 41.7556L252.5 43.5L255.5 45.5L257.5 47L259.5 49L261 51L263 53.5L265 56.5L266 59L267 61.5L267.5 64.5Z" fill="#E2A300"/>
<path d="M50 94.526L54 92.5145L57 91.0058L59.5 90.5029L285 90H286L289 91L290 91.5L292 92.5L294 94L296.5 96.0347L299 98.5491L300.5 100.561L302 103.075L303 105.087L304 107.098L304.5 109.11L305 111.624V118.665L304.5 122.688L272 241.37L269 247.908L267 250.925L265 253.942L262 256.96L259.5 258.971L257 260.48L255.5 261.486L252.5 262.994L249 264H246.5H16.5L12.5 262.491L11 261.486L9 259.977L7 257.965L5 255.954L3.5 253.439L1 249.416L0 247.405V242.879V238.353L1 231.815L2.5 223.769L32.5 114.642L36 107.098L40.5 101.566L45 97.5434L50 94.526Z" fill="#FFC700"/>
</svg>
