<svg width="228" height="257" viewBox="0 0 228 257" fill="none" xmlns="http://www.w3.org/2000/svg">
<path d="M20.5 9V249V250.5L21 251.5L22 253L23 254L24.5 255L26 256L27 256.5H28.5H197.5H199L200.5 256L201.5 255.5L202.5 255L204 254L205.5 252.5L206.5 251L207 249V247.5V60L153.5 0.5H31.5H28.5H27L25.5 1L24.5 1.5L23.5 2L22.5 3L22 3.5L21.5 4.5L21 5.5L20.5 6.5V9Z" fill="#D9D9D9" stroke="#00CC5E"/>
<path d="M1 185.5V102V99.5L2 98L3 96.5L4.5 95L6 94L7.5 93L9 92.5L13 92H19.5L210.5 91L216.5 92L220.5 93.5L223 95.5L224.5 97.5L226 99.5L227 103L226 184.5V187L225 189L223.5 191L222 192.5L220.5 193.5L219.5 194L218 194.5L216.5 195H17H13L10 194.5L8 193.5L6 192.5L4.5 191L3.5 190L2.5 188.5L1.5 187L1 185.5Z" fill="#00CC5E" stroke="#00CC5E"/>
<path d="M85.19 141.63C88.49 143.07 91.04 145.08 92.84 147.66C94.64 150.18 95.54 153.21 95.54 156.75C95.54 162.99 93.44 167.94 89.24 171.6C85.04 175.2 79.28 177 71.96 177H48.47L49.1 163.5V122.55L48.47 109.5H72.05C76.13 109.5 79.67 110.31 82.67 111.93C85.67 113.49 87.98 115.71 89.6 118.59C91.28 121.47 92.12 124.8 92.12 128.58C92.12 131.46 91.52 134.01 90.32 136.23C89.18 138.45 87.47 140.25 85.19 141.63ZM58.37 118.32V137.85H69.17C73.85 137.85 77.21 137.13 79.25 135.69C81.35 134.19 82.4 131.82 82.4 128.58C82.4 125.16 81.35 122.61 79.25 120.93C77.15 119.19 73.85 118.32 69.35 118.32H58.37ZM71.96 168.18C76.4 168.18 79.82 167.19 82.22 165.21C84.62 163.17 85.82 160.35 85.82 156.75C85.82 153.27 84.71 150.72 82.49 149.1C80.33 147.48 76.88 146.67 72.14 146.67H58.37V168.18H71.96ZM107.987 163.5V122.55L107.357 109.5H117.797L117.257 122.55V163.5L117.797 177H107.357L107.987 163.5ZM178.385 163.86L178.925 177.09H170.015V177H163.355L141.845 117.24V163.5L142.385 177H132.845L133.475 163.5V122.55L132.845 109.5H148.595L170.015 168.99V122.91L169.385 109.59H178.925L178.385 122.91V163.86Z" fill="white"/>
</svg>
