<svg width="228" height="257" viewBox="0 0 228 257" fill="none" xmlns="http://www.w3.org/2000/svg">
<path d="M20.5 9V249V250.5L21 251.5L22 253L23 254L24.5 255L26 256L27 256.5H28.5H197.5H199L200.5 256L201.5 255.5L202.5 255L204 254L205.5 252.5L206.5 251L207 249V247.5V60L153.5 0.5H31.5H28.5H27L25.5 1L24.5 1.5L23.5 2L22.5 3L22 3.5L21.5 4.5L21 5.5L20.5 6.5V9Z" fill="#D9D9D9" stroke="#00CC5E"/>
<path d="M20.5 9V249V250.5L21 251.5L22 253L23 254L24.5 255L26 256L27 256.5H28.5H197.5H199L200.5 256L201.5 255.5L202.5 255L204 254L205.5 252.5L206.5 251L207 249V247.5V60L153.5 0.5H31.5H28.5H27L25.5 1L24.5 1.5L23.5 2L22.5 3L22 3.5L21.5 4.5L21 5.5L20.5 6.5V9Z" fill="#D9D9D9" stroke="#CC0C00"/>
<path d="M1 185.5V102V99.5L2 98L3 96.5L4.5 95L6 94L7.5 93L9 92.5L13 92H19.5L210.5 91L216.5 92L220.5 93.5L223 95.5L224.5 97.5L226 99.5L227 103L226 184.5V187L225 189L223.5 191L222 192.5L220.5 193.5L219.5 194L218 194.5L216.5 195H17H13L10 194.5L8 193.5L6 192.5L4.5 191L3.5 190L2.5 188.5L1.5 187L1 185.5Z" fill="#00CC5E" stroke="#00CC5E"/>
<path d="M1 185.5V102V99.5L2 98L3 96.5L4.5 95L6 94L7.5 93L9 92.5L13 92H19.5L210.5 91L216.5 92L220.5 93.5L223 95.5L224.5 97.5L226 99.5L227 103L226 184.5V187L225 189L223.5 191L222 192.5L220.5 193.5L219.5 194L218 194.5L216.5 195H17H13L10 194.5L8 193.5L6 192.5L4.5 191L3.5 190L2.5 188.5L1.5 187L1 185.5Z" fill="#CC0C00" stroke="#CC0C00"/>
<path d="M89.69 118.86L88.7 119.13L80.06 117.96H71.06V163.5L71.69 177H61.25L61.88 163.5V117.96H52.88L44.24 119.13L43.25 118.86L44.69 109.5H88.25L89.69 118.86ZM148.677 177H136.167L128.697 163.5L120.237 149.64L111.957 163.5L105.027 177H92.8766L102.057 163.5L114.657 142.62L102.777 122.55L94.0466 109.5H106.287L113.037 122.55L120.687 135.33L128.067 122.55L134.727 109.5H146.427L137.787 122.55L126.357 142.35L139.227 163.5L148.677 177ZM198.235 118.86L197.245 119.13L188.605 117.96H179.605V163.5L180.235 177H169.795L170.425 163.5V117.96H161.425L152.785 119.13L151.795 118.86L153.235 109.5H196.795L198.235 118.86Z" fill="white"/>
</svg>
