<?xml version="1.0" encoding="UTF-8"?>
<svg width="130mm" height="131mm" version="1.1" viewBox="0 0 130 131" xml:space="preserve" xmlns="http://www.w3.org/2000/svg"><path d="m57.329 124.53c-10.381-0.69718-13.301-0.99442-21.828-2.2216-6.2602-0.90098-7.6883-1.217-10.635-2.3533-6.0641-2.3386-11.784-7.698-14.496-13.581-2.0162-4.3748-3.9615-11.179-4.7448-16.597-0.98837-6.8358-1.3754-26.604-0.71734-36.645 0.17166-2.6194 0.4241-6.5484 0.56096-8.7312 0.13687-2.1828 0.44094-4.9808 0.67572-6.2177 0.86434-4.5538 3.4859-11.42 5.253-13.758 2.2115-2.9264 5.6997-5.8171 9.0326-7.4852 7.6325-3.8201 22.752-6.3973 39.412-6.7181 9.7184-0.18716 14.727 0.11957 29.236 1.7905 5.3799 0.61956 11.785 2.6523 17.322 5.4974 2.3272 1.1958 3.2988 1.8848 4.901 3.4758 2.6938 2.675 4.5092 5.1632 6.0807 8.3344 1.6234 3.276 2.4757 5.8876 3.058 9.3702 0.61197 3.6599 0.4562 5.5991-0.53267 6.6313-1.3988 1.46-3.5244 1.6741-5.0111 0.5047-0.99868-0.78556-1.3807-1.7061-1.5798-3.8061-0.56124-5.9218-3.1114-11.469-7.1158-15.478-3.0773-3.0811-11.682-6.3698-18.667-7.1343-1.4061-0.1539-4.7593-0.5156-7.4514-0.80376-15.099-1.6162-28.076-1.2442-42.598 1.2211-9.9034 1.6813-15.316 3.8968-18.781 7.6881-3.2929 3.603-5.3505 10.283-5.847 18.983-0.14187 2.486-0.37202 6.4845-0.51144 8.8856-0.57214 9.8532-0.08457 28.595 0.89481 34.396 1.1128 6.5909 3.3632 13.164 5.5624 16.246 1.5169 2.1257 4.1194 4.5309 6.2627 5.7878 1.8668 1.0947 4.9287 2.159 6.9951 2.4313 0.7276 0.0959 2.8112 0.40116 4.6302 0.67838 11.659 1.7768 22.991 2.5311 31.547 2.0998 8.3535-0.42117 20.722-1.993 26.794-3.405 4.6334-1.0775 9.1964-3.4092 12.307-6.2889 3.5178-3.2568 5.3498-9.1796 6.2268-20.131 0.12709-1.5869 0.33174-2.4196 0.74784-3.0427 1.56-2.3362 4.7551-2.2606 6.2833 0.14867 0.48644 0.7669 0.52175 1.1297 0.37976 3.902-0.32154 6.2781-1.6281 12.941-3.3479 17.072-1.7877 4.2941-4.2884 7.2998-8.4414 10.146-5.3592 3.6723-9.3705 5.098-18.653 6.6294-13.003 2.1452-24.926 3.0356-33.205 2.4796zm13.891-31.552c-0.43656-0.27584-6.0325-5.7528-12.435-12.171l-11.642-11.669v-3.4351l11.774-11.792c6.4757-6.4858 12.095-11.963 12.488-12.172 2.7671-1.4704 6.0231 1.2317 5.1954 4.3116-0.21733 0.8087-1.8259 2.5606-8.5073 9.2655l-8.2393 8.2682 32.009 0.0058c31.131 0.0057 32.04 0.01992 33.142 0.52023 0.86527 0.39272 1.2551 0.78257 1.6478 1.6478 0.64357 1.418 0.64357 1.9072 0 3.3252-0.39272 0.86526-0.78257 1.2551-1.6478 1.6478-1.1023 0.50032-2.0109 0.51458-33.142 0.52023l-32.009 0.0058 8.2393 8.2682c6.6814 6.7049 8.2899 8.4568 8.5073 9.2655 0.43144 1.6055-0.24057 3.3298-1.6273 4.1753-1.0713 0.65324-2.7306 0.65876-3.7534 0.0125z" fill="#020679" stroke-width=".26458"/></svg>
